<svg width="256" height="256" viewBox="0 0 256 256" fill="none" xmlns="http://www.w3.org/2000/svg">
<g clip-path="url(#clip0_2714_1582)">
<path d="M66.3125 -0.312513C67.5954 -0.356019 67.5954 -0.356019 68.9043 -0.400404C73.1239 -0.442894 75.3852 -0.382753 79.043 1.89452C84.4559 7.71799 82 9.21739 82 20C112.36 20 142.72 20 174 20C174 15.38 174 10.76 174 5.99999C178 0.999987 178 0.999987 180 -1.31428e-05C183.097 -0.289793 186.203 -0.277838 189.312 -0.312513C190.168 -0.341517 191.023 -0.370521 191.904 -0.400404C196.124 -0.442894 198.385 -0.382753 202.043 1.89452C205.485 5.59734 205.108 8.14876 205.062 13.125C205.053 14.4063 205.044 15.6876 205.035 17.0078C205.018 18.4889 205.018 18.4889 205 20C206.498 19.9686 206.498 19.9686 208.026 19.9365C211.749 19.8638 215.473 19.8181 219.197 19.7803C220.805 19.7602 222.413 19.733 224.021 19.6982C226.34 19.6494 228.657 19.627 230.977 19.6094C231.689 19.5887 232.402 19.5681 233.136 19.5468C238.228 19.5445 241.087 20.7904 245 24C246.617 27.2342 246.148 30.7774 246.147 34.3311C246.151 35.2032 246.155 36.0752 246.158 36.9737C246.169 39.9132 246.173 42.8527 246.177 45.7922C246.183 47.8928 246.19 49.9933 246.197 52.0938C246.214 57.8129 246.225 63.5319 246.233 69.2509C246.238 72.8213 246.244 76.3916 246.251 79.962C246.27 91.125 246.284 102.288 246.292 113.451C246.302 126.352 246.328 139.252 246.369 152.152C246.399 162.114 246.414 172.076 246.417 182.038C246.419 187.992 246.428 193.946 246.453 199.901C246.477 205.501 246.481 211.101 246.471 216.701C246.47 218.758 246.477 220.815 246.49 222.873C246.508 225.678 246.501 228.482 246.488 231.288C246.499 232.105 246.51 232.921 246.521 233.763C246.478 237.553 246.156 239.755 244.095 242.982C240.185 246.749 236.448 246.148 231.289 246.147C230.376 246.151 229.463 246.155 228.523 246.158C225.445 246.169 222.368 246.173 219.29 246.177C217.091 246.183 214.892 246.19 212.693 246.197C206.705 246.214 200.717 246.225 194.73 246.233C190.992 246.238 187.254 246.244 183.516 246.251C172.501 246.269 161.485 246.283 150.47 246.291C148.453 246.292 146.437 246.294 144.421 246.295C143.753 246.296 143.086 246.296 142.398 246.297C131.583 246.305 120.768 246.33 109.953 246.363C98.8529 246.396 87.7527 246.413 76.6525 246.417C70.4187 246.419 64.1851 246.428 57.9514 246.453C52.0885 246.477 46.2258 246.481 40.3629 246.471C38.209 246.47 36.0551 246.477 33.9012 246.49C30.9644 246.508 28.0286 246.501 25.0917 246.488C23.8083 246.504 23.8083 246.504 22.4989 246.521C18.4635 246.477 16.4842 246.307 12.9943 244.094C9.33778 240.254 9.84915 236.716 9.8461 231.669C9.84172 230.797 9.83734 229.925 9.83282 229.026C9.8194 226.087 9.81325 223.147 9.80713 220.208C9.79923 218.107 9.79096 216.007 9.78235 213.906C9.7561 206.993 9.74082 200.081 9.72656 193.168C9.7212 190.791 9.71583 188.415 9.71043 186.038C9.6888 176.155 9.67006 166.272 9.65881 156.388C9.64256 142.208 9.60936 128.028 9.55241 113.848C9.51376 103.886 9.49418 93.924 9.48889 83.9621C9.48523 78.0078 9.47314 72.0537 9.44078 66.0994C9.41079 60.4991 9.40436 54.8992 9.41617 49.2989C9.41639 47.2417 9.40803 45.1845 9.39051 43.1274C9.36793 40.3217 9.37607 37.5178 9.392 34.7121C9.37812 33.8953 9.36423 33.0786 9.34993 32.2371C9.40758 28.1244 9.79069 26.2587 12.413 23.018C16.5702 19.7752 19.5279 19.8664 24.6328 19.9023C25.7606 19.9045 25.7606 19.9045 26.9111 19.9066C29.3158 19.9122 31.7204 19.9248 34.125 19.9375C35.7539 19.9425 37.3828 19.9471 39.0117 19.9512C43.0078 19.9622 47.0039 19.9795 51 20C50.9536 19.0474 50.9072 18.0948 50.8594 17.1133C50.8233 15.859 50.7872 14.6048 50.75 13.3125C50.7036 12.0711 50.6572 10.8298 50.6094 9.55077C51.0627 5.43032 52.1025 3.89211 55 0.999987C58.5004 -0.750229 62.4557 -0.2695 66.3125 -0.312513ZM62 11C62 20.57 62 30.14 62 40C64.97 40 67.94 40 71 40C71 30.43 71 20.86 71 11C68.03 11 65.06 11 62 11ZM185 11C185 20.57 185 30.14 185 40C187.97 40 190.94 40 194 40C194 30.43 194 20.86 194 11C191.03 11 188.06 11 185 11ZM21 31C21 42.55 21 54.1 21 66C91.62 66 162.24 66 235 66C235 54.45 235 42.9 235 31C225.1 31 215.2 31 205 31C204.67 35.62 204.34 40.24 204 45C200 50 200 50 197 51C194.545 51.1467 192.085 51.221 189.625 51.25C188.318 51.2758 187.011 51.3016 185.664 51.3281C180.848 50.8968 178.365 49.3646 175 46C174.67 41.05 174.34 36.1 174 31C143.64 31 113.28 31 82 31C81.67 35.95 81.34 40.9 81 46C75.8973 51.1027 73.5738 51.1681 66.625 51.25C65.3179 51.2758 64.0108 51.3016 62.6641 51.3281C58.82 50.9839 57.0151 50.3462 54 48C52 45 52 45 51 31C41.1 31 31.2 31 21 31ZM21 77C21 129.14 21 181.28 21 235C91.62 235 162.24 235 235 235C235 182.86 235 130.72 235 77C164.38 77 93.76 77 21 77Z" fill="#4B4B4B"/>
<path d="M51 97C101.82 97 152.64 97 205 97C205 136.27 205 175.54 205 216C154.18 216 103.36 216 51 216C51 176.73 51 137.46 51 97ZM62 108C62 116.25 62 124.5 62 133C70.25 133 78.5 133 87 133C87 124.75 87 116.5 87 108C78.75 108 70.5 108 62 108ZM98 108C98 116.25 98 124.5 98 133C105.92 133 113.84 133 122 133C122 124.75 122 116.5 122 108C114.08 108 106.16 108 98 108ZM134 108C134 116.25 134 124.5 134 133C141.92 133 149.84 133 158 133C158 124.75 158 116.5 158 108C150.08 108 142.16 108 134 108ZM169 108C169 116.25 169 124.5 169 133C177.25 133 185.5 133 194 133C194 124.75 194 116.5 194 108C185.75 108 177.5 108 169 108ZM62 144C62 151.92 62 159.84 62 168C70.25 168 78.5 168 87 168C87 160.08 87 152.16 87 144C78.75 144 70.5 144 62 144ZM98 144C98 151.92 98 159.84 98 168C105.92 168 113.84 168 122 168C122 160.08 122 152.16 122 144C114.08 144 106.16 144 98 144ZM134 144C134 151.92 134 159.84 134 168C141.92 168 149.84 168 158 168C158 160.08 158 152.16 158 144C150.08 144 142.16 144 134 144ZM169 144C169 151.92 169 159.84 169 168C177.25 168 185.5 168 194 168C194 160.08 194 152.16 194 144C185.75 144 177.5 144 169 144ZM62 180C62 187.92 62 195.84 62 204C70.25 204 78.5 204 87 204C87 196.08 87 188.16 87 180C78.75 180 70.5 180 62 180ZM98 180C98 187.92 98 195.84 98 204C105.92 204 113.84 204 122 204C122 196.08 122 188.16 122 180C114.08 180 106.16 180 98 180ZM134 180C134 187.92 134 195.84 134 204C141.92 204 149.84 204 158 204C158 196.08 158 188.16 158 180C150.08 180 142.16 180 134 180ZM169 180C169 187.92 169 195.84 169 204C177.25 204 185.5 204 194 204C194 196.08 194 188.16 194 180C185.75 180 177.5 180 169 180Z" fill="#4B4B4B"/>
</g>
<defs>
<clipPath id="clip0_2714_1582">
<rect width="256" height="256" fill="white"/>
</clipPath>
</defs>
</svg>
