<svg width="257" height="256" viewBox="0 0 257 256" fill="none" xmlns="http://www.w3.org/2000/svg">
<path d="M100.164 4.48242C100.84 4.47541 101.515 4.4684 102.211 4.46118C104.433 4.44365 106.653 4.45521 108.875 4.46875C110.425 4.46605 111.976 4.46217 113.526 4.45715C116.771 4.45126 120.015 4.4598 123.26 4.47852C127.413 4.50131 131.565 4.48818 135.718 4.46423C138.918 4.44975 142.118 4.45438 145.318 4.46474C146.849 4.4674 148.38 4.46415 149.91 4.45482C152.053 4.44462 154.194 4.46019 156.336 4.48242C157.553 4.4856 158.771 4.48879 160.025 4.49207C163.88 5.09921 165.544 6.22741 168.25 9C169.062 12.25 169.062 12.25 169.25 15C169.8 14.9933 170.351 14.9867 170.918 14.9798C176.661 14.9133 182.403 14.8681 188.146 14.8352C190.288 14.8201 192.43 14.7997 194.571 14.7737C197.654 14.7372 200.737 14.7202 203.82 14.707C204.774 14.6915 205.727 14.6761 206.709 14.6601C212.734 14.6586 217.21 15.2925 221.895 19.4648C226.293 25.0101 226.398 29.118 226.39 36.0267C226.393 36.8419 226.396 37.6571 226.399 38.497C226.408 41.2321 226.41 43.9672 226.411 46.7024C226.416 48.662 226.421 50.6217 226.426 52.5813C226.439 57.9079 226.446 63.2343 226.45 68.5609C226.453 71.8884 226.457 75.2158 226.462 78.5433C226.475 88.9535 226.485 99.3636 226.489 109.774C226.493 121.792 226.511 133.811 226.54 145.83C226.561 155.119 226.572 164.408 226.573 173.697C226.574 179.246 226.58 184.794 226.598 190.343C226.614 195.562 226.616 200.782 226.608 206.001C226.607 207.916 226.611 209.83 226.621 211.744C226.634 214.361 226.628 216.976 226.617 219.592C226.63 220.725 226.63 220.725 226.642 221.88C226.589 227.542 225.518 232.365 221.75 236.742C216.743 240.523 213.594 241.126 207.4 241.14C206.699 241.143 205.998 241.146 205.276 241.149C202.923 241.158 200.569 241.16 198.216 241.161C196.53 241.166 194.845 241.171 193.16 241.176C188.577 241.189 183.994 241.196 179.412 241.2C176.549 241.203 173.686 241.207 170.824 241.212C161.869 241.225 152.913 241.235 143.958 241.239C133.618 241.243 123.278 241.261 112.938 241.29C104.948 241.312 96.957 241.322 88.9662 241.323C84.1929 241.324 79.4197 241.33 74.6464 241.348C70.1558 241.364 65.6654 241.366 61.1748 241.358C59.5277 241.357 57.8805 241.361 56.2334 241.371C53.9824 241.384 51.7321 241.378 49.4811 241.367C48.2222 241.369 46.9632 241.37 45.6661 241.372C41.2625 240.892 37.8928 239.498 34.6055 236.5C30.5123 231.243 30.1023 227.478 30.1096 221.011C30.1066 220.188 30.1036 219.364 30.1006 218.516C30.0919 215.748 30.0904 212.98 30.0889 210.212C30.0842 208.231 30.0792 206.25 30.0738 204.269C30.0607 198.881 30.0543 193.492 30.0498 188.104C30.0469 184.739 30.0428 181.373 30.0383 178.008C30.0246 167.483 30.015 156.958 30.0111 146.433C30.0066 134.277 29.9891 122.12 29.9601 109.963C29.9385 100.571 29.9284 91.1792 29.9271 81.7872C29.926 76.1755 29.9201 70.5639 29.9022 64.9523C29.8858 59.6737 29.8836 54.3954 29.8924 49.1169C29.8932 47.1795 29.8888 45.2421 29.8789 43.3047C29.8662 40.6596 29.8721 38.0151 29.8825 35.37C29.8745 34.6036 29.8664 33.8371 29.8581 33.0475C29.9085 27.5919 31.0274 23.4367 34.75 19.3555C38.8356 16.1742 41.5872 14.8721 46.7214 14.8865C48.0725 14.8866 48.0725 14.8866 49.4509 14.8867C50.4197 14.8919 51.3885 14.897 52.3867 14.9023C53.8786 14.9045 53.8786 14.9045 55.4006 14.9066C58.5796 14.9122 61.7585 14.9248 64.9375 14.9375C67.0918 14.9425 69.2461 14.9471 71.4004 14.9512C76.6836 14.9622 81.9668 14.9789 87.25 15C87.3428 13.6387 87.3428 13.6387 87.4375 12.25C89.1136 5.54562 93.8299 4.49898 100.164 4.48242ZM98.25 16C98.25 25.9 98.25 35.8 98.25 46C118.05 46 137.85 46 158.25 46C158.25 36.1 158.25 26.2 158.25 16C138.45 16 118.65 16 98.25 16ZM42.6488 28.0414C40.9032 31.7334 40.8358 34.9418 40.8758 38.9393C40.8718 39.733 40.8678 40.5267 40.8637 41.3444C40.8541 44.0007 40.8659 46.6565 40.8777 49.3127C40.8753 51.2183 40.8715 53.1239 40.8666 55.0294C40.8572 60.2028 40.8666 65.3761 40.88 70.5495C40.8913 75.9608 40.8872 81.3722 40.8852 86.7836C40.8843 95.8701 40.8954 104.957 40.9138 114.043C40.935 124.554 40.9385 135.064 40.9323 145.574C40.9266 155.68 40.9322 165.786 40.9434 175.892C40.9481 180.195 40.9489 184.499 40.9468 188.802C40.945 193.867 40.9531 198.932 40.9689 203.997C40.9732 205.858 40.974 207.719 40.9712 209.58C40.968 212.116 40.9771 214.652 40.9893 217.188C40.9855 217.927 40.9817 218.667 40.9779 219.429C41.0092 223.085 41.105 225.954 43.25 229C46.1174 230.434 48.5662 230.129 51.7723 230.134C52.4498 230.136 53.1272 230.138 53.8252 230.141C56.1061 230.147 58.3869 230.146 60.6677 230.145C62.2986 230.148 63.9295 230.152 65.5603 230.155C69.9983 230.164 74.4363 230.167 78.8742 230.167C82.5747 230.168 86.2752 230.172 89.9756 230.175C98.7034 230.184 107.431 230.186 116.159 230.185C125.173 230.185 134.186 230.195 143.2 230.211C150.93 230.224 158.66 230.229 166.39 230.229C171.01 230.229 175.631 230.231 180.251 230.242C184.596 230.252 188.94 230.252 193.285 230.245C194.881 230.243 196.478 230.246 198.075 230.252C200.25 230.26 202.425 230.255 204.601 230.247C206.429 230.248 206.429 230.248 208.294 230.249C211.437 230.224 211.437 230.224 214.25 228C215.457 224.379 215.392 221.071 215.384 217.301C215.387 216.113 215.387 216.113 215.391 214.901C215.397 212.239 215.396 209.577 215.395 206.914C215.398 205.009 215.402 203.104 215.405 201.199C215.414 196.017 215.417 190.835 215.417 185.653C215.418 181.332 215.422 177.01 215.425 172.688C215.434 162.495 215.436 152.301 215.435 142.108C215.435 131.582 215.445 121.057 215.461 110.532C215.474 101.504 215.479 92.4752 215.479 83.4467C215.479 78.0509 215.481 72.6551 215.492 67.2592C215.502 62.1859 215.502 57.1127 215.495 52.0394C215.493 50.1754 215.496 48.3113 215.502 46.4473C215.51 43.9067 215.505 41.3664 215.497 38.8258C215.505 37.7141 215.505 37.7141 215.513 36.5799C215.488 32.9201 215.4 30.0487 213.25 27C210.964 25.8568 209.707 25.8789 207.167 25.8865C206.327 25.8866 205.486 25.8866 204.62 25.8867C203.711 25.8919 202.803 25.897 201.867 25.9023C200.938 25.9038 200.008 25.9052 199.051 25.9066C196.076 25.9122 193.1 25.9248 190.125 25.9375C188.111 25.9425 186.096 25.9471 184.082 25.9512C179.138 25.9622 174.194 25.9795 169.25 26C169.25 28.97 169.25 31.94 169.25 35C181.13 35 193.01 35 205.25 35C205.25 96.38 205.25 157.76 205.25 221C154.43 221 103.61 221 51.25 221C51.25 159.62 51.25 98.24 51.25 35C63.13 35 75.01 35 87.25 35C87.25 32.03 87.25 29.06 87.25 26C81.1811 25.8765 75.113 25.7857 69.0432 25.7253C66.978 25.7002 64.9128 25.666 62.8479 25.6228C59.8814 25.5622 56.9162 25.5338 53.9492 25.5117C53.0241 25.4859 52.099 25.4601 51.1459 25.4335C50.2853 25.4331 49.4246 25.4328 48.5378 25.4324C47.402 25.4157 47.402 25.4157 46.2432 25.3987C44.0502 25.8519 44.0502 25.8519 42.6488 28.0414ZM62.25 47C62.25 100.46 62.25 153.92 62.25 209C105.81 209 149.37 209 194.25 209C194.25 155.54 194.25 102.08 194.25 47C186 47 177.75 47 169.25 47C168.26 49.31 167.27 51.62 166.25 54C163.05 56.5624 159.62 56.2591 155.633 56.2747C154.649 56.2823 154.649 56.2823 153.646 56.2901C151.484 56.304 149.322 56.3031 147.16 56.3008C145.653 56.3047 144.146 56.309 142.64 56.3138C139.483 56.3212 136.327 56.3209 133.17 56.3157C129.131 56.3099 125.091 56.3268 121.052 56.35C117.94 56.3648 114.829 56.3656 111.717 56.3625C110.228 56.363 108.739 56.3682 107.25 56.3783C105.165 56.3907 103.081 56.3839 100.996 56.3723C99.8115 56.3729 98.6266 56.3736 97.4059 56.3742C93.8188 55.9489 92.0149 55.3236 89.25 53C88.59 51.02 87.93 49.04 87.25 47C79 47 70.75 47 62.25 47Z" fill="#4B4B4B"/>
<path d="M167.125 88.125C171.139 91.6667 174.28 94.5064 175.25 99.875C175.533 105.742 173.505 110.847 169.677 115.275C168.648 116.364 167.605 117.44 166.551 118.504C165.98 119.101 165.408 119.697 164.82 120.311C162.938 122.266 161.037 124.201 159.133 126.133C158.478 126.802 157.823 127.471 157.148 128.161C153.675 131.708 150.188 135.242 146.688 138.763C143.113 142.365 139.587 146.011 136.071 149.67C133.327 152.509 130.549 155.312 127.761 158.107C126.448 159.435 125.147 160.775 123.861 162.128C114.005 172.457 103.68 178.328 89.25 180C85.6309 179.629 85.6309 179.629 83.25 179C80.0292 171.649 81.4572 165.106 83.8975 157.713C90.2038 142.982 104.802 131.707 116.17 120.865C119.13 118.026 122.056 115.152 124.981 112.276C131.019 106.338 137.079 100.423 143.2 94.5693C143.756 94.0313 144.312 93.4934 144.884 92.9391C151.37 86.7772 158.467 84.7373 167.125 88.125ZM147.119 106.906C146.319 107.689 146.319 107.689 145.503 108.488C139.909 113.971 134.346 119.487 128.786 125.004C126.148 127.62 123.501 130.225 120.844 132.823C117.638 135.958 114.448 139.111 111.271 142.276C110.059 143.478 108.841 144.673 107.617 145.863C98.5924 154.373 98.5924 154.373 95.25 166C105.277 165.36 110.572 158.572 117.16 151.773C118.379 150.542 119.599 149.311 120.821 148.083C124.018 144.859 127.193 141.615 130.364 138.367C133.609 135.05 136.875 131.752 140.139 128.453C146.529 121.988 152.896 115.501 159.25 109C158.274 107.83 157.294 106.664 156.312 105.5C155.767 104.85 155.222 104.201 154.66 103.531C154.195 103.026 153.729 102.521 153.25 102C151.004 102 148.704 105.345 147.119 106.906Z" fill="#4B4B4B"/>
</svg>
