<svg width="33" height="32" viewBox="0 0 33 32" fill="none" xmlns="http://www.w3.org/2000/svg">
<path id="Vector" d="M16.5 0C7.6733 0 0.5 7.1733 0.5 16C0.5 24.8267 7.6733 32 16.5 32C25.3267 32 32.5 24.8267 32.5 16C32.5 7.1733 25.3267 0 16.5 0ZM16.5 1.45455C20.2614 1.45455 23.6705 2.8892 26.25 5.22727L24.2045 7.27273C22.1534 5.46307 19.4517 4.36364 16.5 4.36364C13.4176 4.36364 10.6847 5.53977 8.61364 7.45455C8.35227 7.34375 8.07102 7.27273 7.77273 7.27273C6.5767 7.27273 5.59091 8.25852 5.59091 9.45455C5.59091 9.97727 5.77841 10.4631 6.09091 10.8409C5.27841 12.3977 4.86364 14.1392 4.86364 16C4.86364 21.7386 8.99716 26.4574 14.3864 27.4091C14.6165 28.3636 15.4773 29.0909 16.5 29.0909C17.5284 29.0909 18.3892 28.3523 18.6136 27.3864C24.0369 26.4119 28.1364 21.7159 28.1364 16C28.1364 13.0483 27.0369 10.3466 25.2273 8.29545L27.2727 6.25C29.6108 8.82955 31.0455 12.2386 31.0455 16C31.0455 24.0426 24.5426 30.5455 16.5 30.5455C8.45739 30.5455 1.95455 24.0426 1.95455 16C1.95455 7.95739 8.45739 1.45455 16.5 1.45455ZM16.5 5.81818C19.0625 5.81818 21.375 6.76989 23.1591 8.31818L21.1136 10.3864C21.108 10.3835 21.0966 10.3892 21.0909 10.3864C19.8352 9.35511 18.2472 8.72727 16.5 8.72727C12.4915 8.72727 9.22727 11.9915 9.22727 16C9.22727 20.0085 12.4915 23.2727 16.5 23.2727C18.5256 23.2727 20.3608 22.4347 21.6818 21.0909C22.4432 21.0426 23.0455 20.4091 23.0455 19.6364C23.0455 19.5028 23.0341 19.3722 23 19.25C23.4943 18.2699 23.7727 17.1705 23.7727 16C23.7727 14.2528 23.1449 12.6648 22.1136 11.4091C22.1108 11.4034 22.1165 11.392 22.1136 11.3864L24.1818 9.34091C25.7301 11.125 26.6818 13.4375 26.6818 16C26.6818 20.983 23.1506 25.0597 18.4545 25.9545C18.0966 25.2301 17.3551 24.7273 16.5 24.7273C15.6392 24.7273 14.8977 25.2443 14.5455 25.9773C9.88352 25.1108 6.31818 21.0085 6.31818 16C6.31818 14.3778 6.67045 12.9091 7.34091 11.5909C7.48295 11.6193 7.62216 11.6364 7.77273 11.6364C8.96875 11.6364 9.95455 10.6506 9.95455 9.45455C9.95455 9.08523 9.84659 8.73864 9.68182 8.43182C11.4886 6.7983 13.8295 5.81818 16.5 5.81818ZM7.77273 8.72727C8.18182 8.72727 8.5 9.04545 8.5 9.45455C8.5 9.86364 8.18182 10.1818 7.77273 10.1818C7.36364 10.1818 7.04545 9.86364 7.04545 9.45455C7.04545 9.04545 7.36364 8.72727 7.77273 8.72727ZM16.5 10.1818C17.8494 10.1818 19.0824 10.642 20.0682 11.4091L17.4318 14.0455C17.1477 13.9091 16.8352 13.8182 16.5 13.8182C15.304 13.8182 14.3182 14.804 14.3182 16C14.3182 17.196 15.304 18.1818 16.5 18.1818C17.696 18.1818 18.6818 17.196 18.6818 16C18.6818 15.6648 18.5909 15.3523 18.4545 15.0682L21.0909 12.4318C21.858 13.4176 22.3182 14.6506 22.3182 16C22.3182 16.7812 22.1619 17.5256 21.8864 18.2045C21.7926 18.1847 21.6903 18.1818 21.5909 18.1818C20.7869 18.1818 20.1364 18.8324 20.1364 19.6364C20.1364 19.9006 20.2159 20.1506 20.3409 20.3636C19.3153 21.267 17.9773 21.8182 16.5 21.8182C13.2784 21.8182 10.6818 19.2216 10.6818 16C10.6818 12.7784 13.2784 10.1818 16.5 10.1818ZM16.5 15.2727C16.9091 15.2727 17.2273 15.5909 17.2273 16C17.2273 16.4091 16.9091 16.7273 16.5 16.7273C16.0909 16.7273 15.7727 16.4091 15.7727 16C15.7727 15.5909 16.0909 15.2727 16.5 15.2727ZM16.5 26.1818C16.9091 26.1818 17.2273 26.5 17.2273 26.9091C17.2273 27.3182 16.9091 27.6364 16.5 27.6364C16.0909 27.6364 15.7727 27.3182 15.7727 26.9091C15.7727 26.5 16.0909 26.1818 16.5 26.1818Z" fill="white"/>
</svg>
