<svg width="75" height="80" viewBox="0 0 75 80" fill="none" xmlns="http://www.w3.org/2000/svg">
<path d="M37.5002 0.900391C16.9554 0.900391 0.240234 18.441 0.240234 40.0004C0.240234 61.5598 16.9554 79.1004 37.5002 79.1004C58.0451 79.1004 74.7602 61.5598 74.7602 40.0004C74.7602 32.1855 72.5565 24.9035 68.777 18.7869L67.331 20.3043L66.4071 21.2738C69.6277 26.7257 71.5202 33.1273 71.5202 40.0004C71.5202 59.6864 56.2598 75.7004 37.5002 75.7004C18.7406 75.7004 3.48023 59.6864 3.48023 40.0004C3.48023 20.3144 18.7406 4.30039 37.5002 4.30039C45.4598 4.30039 52.7612 7.22004 58.5602 12.0467V15.4965L54.6147 19.6369C50.0457 15.397 44.0643 12.8004 37.5002 12.8004C23.2086 12.8004 11.5802 25.003 11.5802 40.0004C11.5802 54.9978 23.2086 67.2004 37.5002 67.2004C51.7919 67.2004 63.4202 54.9978 63.4202 40.0004C63.4202 34.3411 61.7606 29.0807 58.9304 24.7236L56.5827 27.1873C58.8475 30.8916 60.1802 35.2812 60.1802 40.0004C60.1802 53.1244 50.0066 63.8004 37.5002 63.8004C24.9938 63.8004 14.8202 53.1244 14.8202 40.0004C14.8202 26.8764 24.9938 16.2004 37.5002 16.2004C43.1723 16.2004 48.3463 18.4133 52.3239 22.0408L46.5779 28.0705C44.0853 25.9725 40.9371 24.7004 37.5002 24.7004C29.4618 24.7004 22.9202 31.565 22.9202 40.0004C22.9202 48.4358 29.4618 55.3004 37.5002 55.3004C45.5387 55.3004 52.0802 48.4358 52.0802 40.0004C52.0802 37.6425 51.5542 35.4187 50.6438 33.4229L48.1726 36.0127C48.5971 37.2605 48.8402 38.6013 48.8402 40.0004C48.8402 46.5624 43.7534 51.9004 37.5002 51.9004C31.247 51.9004 26.1602 46.5624 26.1602 40.0004C26.1602 33.4384 31.247 28.1004 37.5002 28.1004C40.0436 28.1004 42.3848 28.9946 44.2777 30.4844L38.3355 36.7199C38.0633 36.6421 37.7824 36.6019 37.5002 36.6004C36.6409 36.6004 35.8168 36.9586 35.2092 37.5962C34.6016 38.2338 34.2602 39.0987 34.2602 40.0004C34.2602 40.9021 34.6016 41.7669 35.2092 42.4046C35.8168 43.0422 36.6409 43.4004 37.5002 43.4004C37.9966 43.3997 38.4861 43.2793 38.9311 43.0486C39.376 42.8179 39.7646 42.483 40.0666 42.0698C40.3687 41.6565 40.5763 41.176 40.6733 40.6652C40.7704 40.1544 40.7543 39.6271 40.6263 39.1238L60.851 17.9004H65.0402L73.1402 9.40039H66.6602V2.60039L60.3859 9.18457C54.0645 4.00178 46.1257 0.900391 37.5002 0.900391Z" fill="#686868"/>
</svg>
