<svg width="22" height="22" viewBox="0 0 22 22" fill="none" xmlns="http://www.w3.org/2000/svg">
<path id="Vector" d="M15.7818 2.46144e-07C15.6974 0.000194477 15.6147 0.0231713 15.5418 0.0666021C15.469 0.110033 15.4087 0.172374 15.367 0.247307C15.367 0.247307 14.4571 1.77224 14.9812 3.31621H14.9803C15.2605 4.14181 15.8997 4.73958 16.4478 5.15812C16.8682 5.47911 17.1839 5.65387 17.3417 5.73771C17.462 5.95859 17.5668 6.18797 17.6575 6.42521C17.0495 5.90305 16.3964 5.61031 15.977 5.41975C15.9184 5.39315 15.8552 5.37886 15.7911 5.37773C15.7276 5.3766 15.6645 5.38841 15.6055 5.41247C15.5465 5.43653 15.4928 5.47236 15.4475 5.51787C15.4022 5.56338 15.3662 5.61765 15.3416 5.67753C15.3171 5.73741 15.3044 5.80169 15.3044 5.86662C15.3044 6.58968 15.3052 7.62302 15.9704 8.66052C16.5896 9.62529 17.5897 10.0156 18.1563 10.1682C18.1327 10.6878 18.0637 11.1923 17.9517 11.6798C17.7649 11.235 17.4631 10.7932 17.0017 10.3859C16.9165 10.3105 16.808 10.2682 16.6953 10.2666C16.572 10.265 16.4529 10.3122 16.3628 10.3984C16.3628 10.3984 15.3044 11.4241 15.3044 13.155C15.3044 13.9888 15.7354 14.6863 16.1806 15.1783C16.1428 15.2215 16.1091 15.2689 16.0704 15.3111C15.7899 15.6166 15.4058 15.9322 14.9812 16.2478C15.0104 16.1593 15.0458 16.0682 15.07 15.9833C15.267 15.2899 15.3035 14.6981 15.3035 14.6981C15.3076 14.6328 15.2989 14.5673 15.2779 14.5055C15.2568 14.4437 15.2238 14.3868 15.1809 14.3383C15.138 14.2898 15.0859 14.2505 15.0279 14.223C14.9698 14.1954 14.9069 14.18 14.843 14.1777C14.819 14.1768 14.7949 14.1777 14.771 14.1805C14.771 14.1805 13.1 14.3311 12.0556 15.4973C11.4757 16.1447 11.4369 17.003 11.5016 17.6543C11.5321 17.9611 11.5901 18.2311 11.6427 18.4373C11.405 18.599 11.1918 18.759 11 18.9185C10.8082 18.759 10.5951 18.599 10.3573 18.4373C10.4099 18.2311 10.4679 17.9611 10.4984 17.6543C10.5631 17.003 10.5243 16.1447 9.94445 15.4973C8.90003 14.3311 7.22896 14.1805 7.22896 14.1805C7.21314 14.1788 7.19724 14.1778 7.18132 14.1777C7.11529 14.1766 7.04976 14.1895 6.98886 14.2156C6.92795 14.2418 6.873 14.2805 6.82746 14.3294C6.78191 14.3782 6.74677 14.4362 6.72423 14.4997C6.70169 14.5632 6.69226 14.6307 6.69652 14.6981C6.69652 14.6981 6.73302 15.2899 6.93005 15.9833C6.95406 16.0678 6.98506 16.1568 7.01412 16.2449C6.5914 15.9304 6.20916 15.6156 5.92961 15.3111C5.89088 15.2689 5.85722 15.2215 5.81938 15.1783C6.26464 14.6863 6.69558 13.9888 6.69558 13.155C6.69558 11.4241 5.63723 10.3984 5.63723 10.3984C5.59049 10.3538 5.5355 10.3193 5.4755 10.2968C5.41549 10.2743 5.35169 10.2644 5.28787 10.2675C5.18111 10.2728 5.07916 10.3145 4.99829 10.3859C4.5369 10.7932 4.23513 11.235 4.04829 11.6798C3.93635 11.1923 3.86728 10.6878 3.84372 10.1682C4.4103 10.0156 5.41038 9.62529 6.02956 8.66052C6.69484 7.62302 6.69558 6.58968 6.69558 5.86662C6.6956 5.8012 6.68278 5.73643 6.65787 5.67617C6.63296 5.61591 6.59647 5.56136 6.55057 5.51578C6.50466 5.47019 6.45028 5.43448 6.39063 5.41077C6.33098 5.38706 6.26728 5.37582 6.2033 5.37773C6.14111 5.37962 6.07987 5.39389 6.02302 5.41975C5.60561 5.6094 4.95648 5.90005 4.35094 6.41757C4.44091 6.18405 4.53968 5.95545 4.65827 5.73771C4.81613 5.65387 5.13185 5.47911 5.55222 5.15812C6.10034 4.73958 6.73954 4.14181 7.01972 3.31621H7.01879C7.54291 1.77224 6.633 0.247307 6.633 0.247307C6.58931 0.16893 6.52526 0.104434 6.44794 0.060955C6.37062 0.0174765 6.28304 -0.0032893 6.19489 0.000955099C6.10668 0.00515651 6.02133 0.0342396 5.94829 0.0849822C5.94829 0.0849822 3.82597 1.46327 3.82597 3.5998V5.25838C3.75443 5.38949 3.68336 5.52085 3.6214 5.6556C3.49536 5.17201 3.32516 4.77592 3.15154 4.46394C2.8078 3.8463 2.41732 3.52627 2.41732 3.52627C2.32858 3.45505 2.21807 3.41819 2.10532 3.42219C2.02847 3.42514 1.95345 3.44699 1.88661 3.48589C1.81978 3.52478 1.76311 3.57958 1.7214 3.64563C1.21624 4.44569 0.821781 5.72349 0.993721 6.916C1.18639 8.25115 2.3479 8.89065 2.88251 9.12935C2.874 9.34438 2.86943 9.5603 2.86943 9.7777C2.86943 9.78994 2.87125 9.80175 2.8713 9.81398C2.61135 9.61427 2.33226 9.45074 2.06796 9.32223C1.29711 8.94745 0.567763 8.80852 0.567763 8.80852C0.536363 8.80241 0.504444 8.79953 0.472482 8.79993C0.404643 8.80077 0.337755 8.81636 0.276261 8.84566C0.214767 8.87495 0.160074 8.91729 0.115812 8.96984C0.0715501 9.0224 0.0387332 9.08399 0.0195398 9.1505C0.000346453 9.21702 -0.0047841 9.28695 0.00448889 9.35565C0.00448889 9.35565 0.218588 11.2691 1.03949 12.4981C1.55846 13.2752 2.32478 13.5302 2.90399 13.558C3.1936 13.5718 3.4528 13.5361 3.63915 13.4969C3.76245 13.7823 3.8993 14.0587 4.04922 14.3266C3.76644 14.2356 3.47196 14.1777 3.17022 14.1777C2.12687 14.1777 1.2039 14.7277 1.2039 14.7277C1.10007 14.7863 1.02126 14.8823 0.982764 14.997C0.94427 15.1117 0.948841 15.2369 0.995589 15.3483C0.995589 15.3483 1.22537 15.8999 1.68123 16.4493C2.13709 16.9986 2.867 17.5999 3.85773 17.5999C4.95926 17.5999 5.72816 17.1342 6.14072 16.7997C6.50091 17.0857 6.89051 17.3578 7.28688 17.6228C6.43305 17.6775 5.75447 17.9009 5.286 18.1403C4.75069 18.4139 4.44436 18.7209 4.44436 18.7209C4.39434 18.772 4.35604 18.8339 4.33222 18.902C4.30841 18.9701 4.29967 19.0427 4.30664 19.1147C4.31361 19.1867 4.33611 19.2561 4.37253 19.3182C4.40894 19.3802 4.45836 19.4331 4.51722 19.4733C4.51722 19.4733 6.00475 20.5332 7.65212 20.5332C8.79265 20.5332 9.45726 19.7764 9.79219 19.2355C9.97062 19.3559 10.1397 19.4734 10.2789 19.5783C9.71047 20.15 9.34461 20.7372 9.11869 21.3352C9.09612 21.3952 9.08531 21.4591 9.0869 21.5233C9.08849 21.5875 9.10243 21.6507 9.12793 21.7094C9.15343 21.7681 9.18999 21.8211 9.23553 21.8654C9.28106 21.9096 9.33468 21.9443 9.39332 21.9674C9.51174 22.0139 9.64342 22.0106 9.75939 21.9579C9.81681 21.9318 9.86865 21.8945 9.91194 21.8479C9.95523 21.8014 9.98913 21.7466 10.0117 21.6866C10.2041 21.1774 10.4903 20.7104 11 20.2171C11.5097 20.7104 11.7959 21.1774 11.9883 21.6866C12.0109 21.7466 12.0448 21.8014 12.0881 21.8479C12.1314 21.8945 12.1832 21.9318 12.2406 21.9579C12.298 21.984 12.3599 21.9982 12.4227 21.9998C12.4855 22.0015 12.548 21.9904 12.6067 21.9674C12.6653 21.9443 12.7189 21.9096 12.7645 21.8654C12.81 21.8211 12.8466 21.7681 12.8721 21.7094C12.8976 21.6507 12.9115 21.5875 12.9131 21.5233C12.9147 21.4591 12.9039 21.3952 12.8813 21.3352C12.6554 20.7372 12.2895 20.15 11.7211 19.5783C11.8594 19.4741 12.028 19.3579 12.205 19.2384C12.543 19.7796 13.2144 20.5332 14.3479 20.5332C15.9953 20.5332 17.4828 19.4733 17.4828 19.4733C17.5416 19.4331 17.5911 19.3802 17.6275 19.3182C17.6639 19.2561 17.6864 19.1867 17.6934 19.1147C17.7003 19.0427 17.6916 18.9701 17.6678 18.902C17.644 18.8339 17.6057 18.772 17.5556 18.7209C17.5556 18.7209 17.2493 18.4139 16.714 18.1403C16.2467 17.9015 15.5704 17.6783 14.7197 17.6228C15.1172 17.3595 15.5002 17.0848 15.8593 16.7997C16.2718 17.1342 17.0407 17.5999 18.1423 17.5999C19.133 17.5999 19.8629 16.9986 20.3188 16.4493C20.7746 15.8999 21.0044 15.3483 21.0044 15.3483C21.0512 15.2369 21.0557 15.1117 21.0172 14.997C20.9787 14.8823 20.8999 14.7863 20.7961 14.7277C20.7961 14.7277 19.8731 14.1777 18.8298 14.1777C18.528 14.1777 18.2336 14.2356 17.9508 14.3266C18.1007 14.0587 18.2375 13.7823 18.3609 13.4969C18.5472 13.5361 18.8064 13.5718 19.096 13.558C19.6752 13.5302 20.4415 13.2752 20.9605 12.4981C21.7814 11.2691 21.9955 9.35565 21.9955 9.35565C22.0048 9.28679 21.9996 9.2167 21.9803 9.15005C21.961 9.0834 21.928 9.02172 21.8836 8.96913C21.8391 8.91654 21.7842 8.87425 21.7225 8.84507C21.6607 8.81589 21.5936 8.8005 21.5257 8.79993C21.4943 8.79966 21.463 8.80254 21.4322 8.80852C21.4322 8.80852 20.7029 8.94745 19.932 9.32223C19.6677 9.45074 19.3887 9.61427 19.1287 9.81398C19.1298 9.80191 19.1304 9.78981 19.1306 9.7777C19.1306 9.5603 19.126 9.34438 19.1175 9.12935C19.6521 8.89065 20.8136 8.25115 21.0063 6.916C21.1782 5.72349 20.7838 4.44569 20.2786 3.64563C20.2351 3.57679 20.1753 3.52025 20.1048 3.48121C20.0342 3.44216 19.9553 3.42187 19.8751 3.42219C19.769 3.42279 19.6662 3.45941 19.5827 3.52627C19.5827 3.52627 19.1922 3.8463 18.8485 4.46394C18.6748 4.77592 18.5046 5.17201 18.3786 5.6556C18.3166 5.52085 18.2456 5.38949 18.174 5.25838V3.5998C18.174 1.46327 16.0517 0.0849822 16.0517 0.0849822C15.9721 0.0295207 15.8781 -9.85086e-05 15.7818 2.46144e-07ZM6.02582 1.33679C6.18124 1.79966 6.3173 2.40088 6.11549 2.99537C5.94324 3.50296 5.44996 4.01599 4.97961 4.37514C4.87465 4.45528 4.87775 4.43616 4.78251 4.50022V3.5998C4.78251 2.56392 5.53526 1.78315 6.02582 1.33679ZM15.9742 1.33679C16.4647 1.78315 17.2175 2.56392 17.2175 3.5998V4.50022C17.1223 4.43616 17.1254 4.45528 17.0204 4.37514C16.55 4.01599 16.0568 3.50296 15.8845 2.99537C15.6827 2.40088 15.8188 1.79966 15.9742 1.33679ZM2.25478 4.8602C2.28851 4.91369 2.28439 4.8828 2.32017 4.94709C2.58862 5.42945 2.86943 6.1945 2.86943 7.33327V7.98257C2.45293 7.72358 2.02506 7.36234 1.93998 6.77277C1.85312 6.17033 2.03021 5.46138 2.25478 4.8602ZM19.7452 4.8602C19.9698 5.46138 20.1469 6.17033 20.06 6.77277C19.9749 7.36234 19.5471 7.72358 19.1306 7.98257V7.33327C19.1306 6.1945 19.4114 5.42945 19.6798 4.94709C19.7156 4.8828 19.7115 4.91369 19.7452 4.8602ZM5.69234 6.67442C5.64914 7.14338 5.5532 7.62074 5.22995 8.12485C4.90072 8.63784 4.38962 8.91329 3.95488 9.08161C4.09078 8.3397 4.35995 7.75522 4.75822 7.35714C5.04916 7.06635 5.37382 6.85237 5.69234 6.67442ZM16.3077 6.67442C16.6262 6.85237 16.9508 7.06635 17.2418 7.35714C17.6401 7.75522 17.9092 8.3397 18.0451 9.08161C17.6104 8.91329 17.0993 8.63784 16.7701 8.12485C16.4468 7.62074 16.3509 7.14338 16.3077 6.67442ZM1.12263 10.0212C1.34194 10.0908 1.38637 10.0739 1.65694 10.2055C2.29914 10.5177 2.86373 10.982 2.94323 11.5757C2.94568 11.5937 2.94911 11.6115 2.9535 11.6292L3.18236 12.5515C3.08061 12.5655 3.08153 12.5885 2.94883 12.5821C2.5715 12.564 2.16785 12.4524 1.82976 11.9462C1.47263 11.4115 1.26204 10.6405 1.12263 10.0212ZM20.8774 10.0212C20.738 10.6405 20.5274 11.4115 20.1702 11.9462C19.8322 12.4524 19.4285 12.564 19.0512 12.5821C18.9185 12.5885 18.9194 12.5655 18.8176 12.5515L19.0465 11.6292C19.0509 11.6115 19.0543 11.5937 19.0568 11.5757C19.1363 10.982 19.7009 10.5177 20.3431 10.2055C20.6136 10.0739 20.6581 10.0908 20.8774 10.0212ZM5.27852 11.5174C5.49765 11.8461 5.73904 12.3383 5.73904 13.155C5.73904 13.5232 5.50271 13.9397 5.23929 14.3008C5.08689 14.0756 4.96993 13.9898 4.84696 13.5666C4.66738 12.9485 4.66906 12.2554 5.27852 11.5174ZM16.7215 11.5174C17.3309 12.2554 17.3326 12.9485 17.153 13.5666C17.0301 13.9898 16.9131 14.0756 16.7607 14.3008C16.4973 13.9397 16.261 13.5232 16.261 13.155C16.261 12.3383 16.5024 11.8461 16.7215 11.5174ZM3.17022 15.1554C3.64204 15.1554 4.33591 15.4754 4.87592 15.8267C5.15582 16.0088 5.19133 16.0569 5.35606 16.1895C5.05776 16.4022 4.60549 16.6221 3.85773 16.6221C3.24817 16.6221 2.7663 16.2456 2.41078 15.8171C2.22843 15.5974 2.22491 15.5402 2.13521 15.3789C2.42978 15.267 2.80808 15.1554 3.17022 15.1554ZM18.8298 15.1554C19.1919 15.1554 19.5702 15.267 19.8648 15.3789C19.7751 15.5402 19.7716 15.5974 19.5892 15.8171C19.2337 16.2456 18.7518 16.6221 18.1423 16.6221C17.3945 16.6221 16.9422 16.4022 16.6439 16.1895C16.8087 16.0569 16.8442 16.0088 17.1241 15.8267C17.6641 15.4754 18.358 15.1554 18.8298 15.1554ZM7.77729 15.3235C8.25006 15.4643 8.82504 15.6956 9.23919 16.158C9.53501 16.4883 9.59857 17.0406 9.54745 17.555C9.53453 17.685 9.51822 17.6764 9.497 17.788L8.78147 17.215C8.76915 17.2052 8.75637 17.1959 8.74317 17.1874C8.32086 16.9133 8.01378 16.2926 7.84828 15.7102C7.78875 15.5007 7.807 15.491 7.77729 15.3235ZM14.2227 15.3235C14.193 15.491 14.2112 15.5007 14.1517 15.7102C13.9862 16.2926 13.6791 16.9133 13.2568 17.1874C13.2436 17.1959 13.2308 17.2052 13.2185 17.215L12.503 17.788C12.4818 17.6764 12.4655 17.685 12.4526 17.555C12.4014 17.0406 12.465 16.4883 12.7608 16.158C13.175 15.6956 13.7499 15.4643 14.2227 15.3235ZM7.65212 18.5776C8.28454 18.5776 8.67857 18.6749 8.94214 18.7629C8.73829 19.1148 8.39054 19.5554 7.65212 19.5554C6.91367 19.5554 6.23077 19.2728 5.71569 19.014C6.13694 18.7989 6.77636 18.5776 7.65212 18.5776ZM14.3479 18.5776C15.2236 18.5776 15.8631 18.7989 16.2843 19.014C15.7692 19.2728 15.0863 19.5554 14.3479 19.5554C13.6095 19.5554 13.2617 19.1148 13.0579 18.7629C13.3214 18.6749 13.7155 18.5776 14.3479 18.5776Z" fill="white"/>
</svg>
